<mxfile host="app.diagrams.net" agent="Mozilla/5.0 (Windows NT 10.0; Win64; x64) AppleWebKit/537.36 (KHTML, like Gecko) Chrome/138.0.0.0 Safari/537.36 Edg/138.0.0.0" version="27.2.0" pages="2">
  <diagram name="gims-classification" id="yE16xMdfLCays2aU9v3c">
    <mxGraphModel dx="2130" dy="1010" grid="1" gridSize="10" guides="1" tooltips="1" connect="1" arrows="1" fold="1" page="1" pageScale="1" pageWidth="1654" pageHeight="1169" math="0" shadow="0">
      <root>
        <mxCell id="0" />
        <mxCell id="1" parent="0" />
        <mxCell id="rxSAj68sfvyTgOexhZe--53" value="" style="rounded=1;whiteSpace=wrap;html=1;arcSize=6;" parent="1" vertex="1">
          <mxGeometry x="1390" y="150" width="130" height="420" as="geometry" />
        </mxCell>
        <mxCell id="rxSAj68sfvyTgOexhZe--52" value="" style="rounded=1;whiteSpace=wrap;html=1;arcSize=2;" parent="1" vertex="1">
          <mxGeometry x="700" y="150" width="680" height="420" as="geometry" />
        </mxCell>
        <mxCell id="rxSAj68sfvyTgOexhZe--1" value="" style="rounded=1;whiteSpace=wrap;html=1;arcSize=4;" parent="1" vertex="1">
          <mxGeometry x="510" y="150" width="160" height="420" as="geometry" />
        </mxCell>
        <mxCell id="rxSAj68sfvyTgOexhZe--6" style="edgeStyle=orthogonalEdgeStyle;rounded=0;orthogonalLoop=1;jettySize=auto;html=1;entryX=0;entryY=0.5;entryDx=0;entryDy=0;" parent="1" source="rxSAj68sfvyTgOexhZe--3" target="rxSAj68sfvyTgOexhZe--4" edge="1">
          <mxGeometry relative="1" as="geometry" />
        </mxCell>
        <mxCell id="rxSAj68sfvyTgOexhZe--38" style="edgeStyle=orthogonalEdgeStyle;rounded=0;orthogonalLoop=1;jettySize=auto;html=1;entryX=0.5;entryY=1;entryDx=0;entryDy=0;" parent="1" source="rxSAj68sfvyTgOexhZe--3" target="rxSAj68sfvyTgOexhZe--37" edge="1">
          <mxGeometry relative="1" as="geometry" />
        </mxCell>
        <mxCell id="rxSAj68sfvyTgOexhZe--3" value="Upload CSV" style="labelPosition=center;verticalLabelPosition=middle;align=center;html=1;shape=mxgraph.basic.shaded_button;dx=5.41;fillColor=#E6E6E6;strokeColor=none;whiteSpace=wrap;" parent="1" vertex="1">
          <mxGeometry x="530" y="250" width="120" height="40" as="geometry" />
        </mxCell>
        <mxCell id="rxSAj68sfvyTgOexhZe--7" style="edgeStyle=orthogonalEdgeStyle;rounded=0;orthogonalLoop=1;jettySize=auto;html=1;" parent="1" source="rxSAj68sfvyTgOexhZe--4" target="rxSAj68sfvyTgOexhZe--5" edge="1">
          <mxGeometry relative="1" as="geometry" />
        </mxCell>
        <mxCell id="rxSAj68sfvyTgOexhZe--4" value="Raw Input&lt;div&gt;Dataframe&lt;/div&gt;" style="rounded=0;whiteSpace=wrap;html=1;" parent="1" vertex="1">
          <mxGeometry x="727" y="247.5" width="83" height="45" as="geometry" />
        </mxCell>
        <mxCell id="rxSAj68sfvyTgOexhZe--9" style="edgeStyle=orthogonalEdgeStyle;rounded=0;orthogonalLoop=1;jettySize=auto;html=1;entryX=0;entryY=0.5;entryDx=0;entryDy=0;" parent="1" source="rxSAj68sfvyTgOexhZe--5" target="rxSAj68sfvyTgOexhZe--8" edge="1">
          <mxGeometry relative="1" as="geometry" />
        </mxCell>
        <mxCell id="rxSAj68sfvyTgOexhZe--17" value="success" style="edgeLabel;html=1;align=center;verticalAlign=middle;resizable=0;points=[];" parent="rxSAj68sfvyTgOexhZe--9" vertex="1" connectable="0">
          <mxGeometry x="-0.1095" relative="1" as="geometry">
            <mxPoint as="offset" />
          </mxGeometry>
        </mxCell>
        <mxCell id="rxSAj68sfvyTgOexhZe--11" style="edgeStyle=orthogonalEdgeStyle;rounded=0;orthogonalLoop=1;jettySize=auto;html=1;entryX=0.5;entryY=0;entryDx=0;entryDy=0;" parent="1" source="rxSAj68sfvyTgOexhZe--5" target="rxSAj68sfvyTgOexhZe--10" edge="1">
          <mxGeometry relative="1" as="geometry" />
        </mxCell>
        <mxCell id="rxSAj68sfvyTgOexhZe--18" value="failure" style="edgeLabel;html=1;align=center;verticalAlign=middle;resizable=0;points=[];" parent="rxSAj68sfvyTgOexhZe--11" vertex="1" connectable="0">
          <mxGeometry x="-0.365" relative="1" as="geometry">
            <mxPoint as="offset" />
          </mxGeometry>
        </mxCell>
        <mxCell id="rxSAj68sfvyTgOexhZe--5" value="Data Validator" style="rounded=1;whiteSpace=wrap;html=1;" parent="1" vertex="1">
          <mxGeometry x="850" y="245" width="70" height="50" as="geometry" />
        </mxCell>
        <mxCell id="rxSAj68sfvyTgOexhZe--20" style="edgeStyle=orthogonalEdgeStyle;rounded=0;orthogonalLoop=1;jettySize=auto;html=1;entryX=0.5;entryY=0;entryDx=0;entryDy=0;" parent="1" source="rxSAj68sfvyTgOexhZe--8" target="rxSAj68sfvyTgOexhZe--24" edge="1">
          <mxGeometry relative="1" as="geometry">
            <mxPoint x="1040" y="320" as="targetPoint" />
          </mxGeometry>
        </mxCell>
        <mxCell id="rxSAj68sfvyTgOexhZe--46" style="edgeStyle=orthogonalEdgeStyle;rounded=0;orthogonalLoop=1;jettySize=auto;html=1;entryX=0.5;entryY=0;entryDx=0;entryDy=0;" parent="1" source="rxSAj68sfvyTgOexhZe--8" target="rxSAj68sfvyTgOexhZe--41" edge="1">
          <mxGeometry relative="1" as="geometry">
            <mxPoint x="1170" y="270" as="targetPoint" />
          </mxGeometry>
        </mxCell>
        <mxCell id="rxSAj68sfvyTgOexhZe--51" value="data" style="edgeLabel;html=1;align=center;verticalAlign=middle;resizable=0;points=[];" parent="rxSAj68sfvyTgOexhZe--46" vertex="1" connectable="0">
          <mxGeometry x="-0.4961" y="-1" relative="1" as="geometry">
            <mxPoint as="offset" />
          </mxGeometry>
        </mxCell>
        <mxCell id="rxSAj68sfvyTgOexhZe--8" value="Validated Input Dataframe" style="rounded=0;whiteSpace=wrap;html=1;" parent="1" vertex="1">
          <mxGeometry x="990" y="247.5" width="100" height="45" as="geometry" />
        </mxCell>
        <mxCell id="rxSAj68sfvyTgOexhZe--13" style="edgeStyle=orthogonalEdgeStyle;rounded=0;orthogonalLoop=1;jettySize=auto;html=1;" parent="1" source="rxSAj68sfvyTgOexhZe--10" target="rxSAj68sfvyTgOexhZe--58" edge="1">
          <mxGeometry relative="1" as="geometry" />
        </mxCell>
        <mxCell id="rxSAj68sfvyTgOexhZe--10" value="Exception" style="rounded=0;whiteSpace=wrap;html=1;" parent="1" vertex="1">
          <mxGeometry x="843.5" y="340" width="83" height="35" as="geometry" />
        </mxCell>
        <mxCell id="rxSAj68sfvyTgOexhZe--12" value="User Notif." style="rounded=0;whiteSpace=wrap;html=1;" parent="1" vertex="1">
          <mxGeometry x="548.5" y="340" width="83" height="35" as="geometry" />
        </mxCell>
        <mxCell id="rxSAj68sfvyTgOexhZe--16" style="edgeStyle=orthogonalEdgeStyle;rounded=0;orthogonalLoop=1;jettySize=auto;html=1;entryX=0.5;entryY=0;entryDx=0;entryDy=0;" parent="1" source="rxSAj68sfvyTgOexhZe--15" target="rxSAj68sfvyTgOexhZe--5" edge="1">
          <mxGeometry relative="1" as="geometry" />
        </mxCell>
        <mxCell id="rxSAj68sfvyTgOexhZe--15" value="Expected Input&amp;nbsp;&lt;div&gt;Schema&lt;/div&gt;" style="rounded=0;whiteSpace=wrap;html=1;" parent="1" vertex="1">
          <mxGeometry x="850" y="170" width="70" height="45" as="geometry" />
        </mxCell>
        <mxCell id="rxSAj68sfvyTgOexhZe--21" value="LLM Endpoint" style="rounded=0;whiteSpace=wrap;html=1;" parent="1" vertex="1">
          <mxGeometry x="1150" y="295" width="70" height="45" as="geometry" />
        </mxCell>
        <mxCell id="rxSAj68sfvyTgOexhZe--22" value="Secret&amp;nbsp;&lt;div&gt;Mgnt&lt;/div&gt;" style="rounded=0;whiteSpace=wrap;html=1;" parent="1" vertex="1">
          <mxGeometry x="1150" y="365" width="70" height="45" as="geometry" />
        </mxCell>
        <mxCell id="rxSAj68sfvyTgOexhZe--25" style="edgeStyle=orthogonalEdgeStyle;rounded=0;orthogonalLoop=1;jettySize=auto;html=1;entryX=0;entryY=0.5;entryDx=0;entryDy=0;startArrow=classic;startFill=1;exitX=1;exitY=0.25;exitDx=0;exitDy=0;" parent="1" source="rxSAj68sfvyTgOexhZe--24" target="rxSAj68sfvyTgOexhZe--21" edge="1">
          <mxGeometry relative="1" as="geometry" />
        </mxCell>
        <mxCell id="rxSAj68sfvyTgOexhZe--29" style="edgeStyle=orthogonalEdgeStyle;rounded=0;orthogonalLoop=1;jettySize=auto;html=1;entryX=0;entryY=0.5;entryDx=0;entryDy=0;startArrow=classic;startFill=1;endArrow=none;endFill=0;" parent="1" source="rxSAj68sfvyTgOexhZe--24" target="rxSAj68sfvyTgOexhZe--22" edge="1">
          <mxGeometry relative="1" as="geometry" />
        </mxCell>
        <mxCell id="rxSAj68sfvyTgOexhZe--31" style="edgeStyle=orthogonalEdgeStyle;rounded=0;orthogonalLoop=1;jettySize=auto;html=1;" parent="1" source="rxSAj68sfvyTgOexhZe--24" target="rxSAj68sfvyTgOexhZe--43" edge="1">
          <mxGeometry relative="1" as="geometry" />
        </mxCell>
        <mxCell id="rxSAj68sfvyTgOexhZe--24" value="Prompt Engineering Wrapper" style="rounded=1;whiteSpace=wrap;html=1;fillColor=#fff2cc;strokeColor=#d6b656;" parent="1" vertex="1">
          <mxGeometry x="990" y="322.5" width="100" height="50" as="geometry" />
        </mxCell>
        <mxCell id="rxSAj68sfvyTgOexhZe--28" style="edgeStyle=orthogonalEdgeStyle;rounded=0;orthogonalLoop=1;jettySize=auto;html=1;entryX=1;entryY=0.75;entryDx=0;entryDy=0;" parent="1" source="rxSAj68sfvyTgOexhZe--27" target="rxSAj68sfvyTgOexhZe--24" edge="1">
          <mxGeometry relative="1" as="geometry">
            <Array as="points">
              <mxPoint x="1110" y="458" />
              <mxPoint x="1110" y="360" />
            </Array>
          </mxGeometry>
        </mxCell>
        <mxCell id="rxSAj68sfvyTgOexhZe--27" value="Business Data" style="rounded=0;whiteSpace=wrap;html=1;" parent="1" vertex="1">
          <mxGeometry x="1420" y="435" width="70" height="45" as="geometry" />
        </mxCell>
        <mxCell id="rxSAj68sfvyTgOexhZe--33" style="edgeStyle=orthogonalEdgeStyle;rounded=0;orthogonalLoop=1;jettySize=auto;html=1;entryX=0.993;entryY=0.477;entryDx=0;entryDy=0;entryPerimeter=0;" parent="1" source="rxSAj68sfvyTgOexhZe--30" target="rxSAj68sfvyTgOexhZe--32" edge="1">
          <mxGeometry relative="1" as="geometry">
            <mxPoint x="790" y="460" as="targetPoint" />
            <Array as="points">
              <mxPoint x="740" y="473" />
              <mxPoint x="740" y="489" />
            </Array>
          </mxGeometry>
        </mxCell>
        <mxCell id="rxSAj68sfvyTgOexhZe--36" style="edgeStyle=orthogonalEdgeStyle;rounded=0;orthogonalLoop=1;jettySize=auto;html=1;entryX=1;entryY=0.5;entryDx=0;entryDy=0;" parent="1" source="rxSAj68sfvyTgOexhZe--30" target="rxSAj68sfvyTgOexhZe--35" edge="1">
          <mxGeometry relative="1" as="geometry">
            <Array as="points">
              <mxPoint x="740" y="460" />
              <mxPoint x="740" y="418" />
            </Array>
          </mxGeometry>
        </mxCell>
        <mxCell id="rxSAj68sfvyTgOexhZe--30" value="Output&amp;nbsp;&lt;div&gt;Dataframe&lt;/div&gt;" style="rounded=0;whiteSpace=wrap;html=1;" parent="1" vertex="1">
          <mxGeometry x="820" y="450" width="100" height="45" as="geometry" />
        </mxCell>
        <mxCell id="rxSAj68sfvyTgOexhZe--32" value="Download CSV" style="labelPosition=center;verticalLabelPosition=middle;align=center;html=1;shape=mxgraph.basic.shaded_button;dx=5.41;fillColor=#E6E6E6;strokeColor=none;whiteSpace=wrap;" parent="1" vertex="1">
          <mxGeometry x="530" y="470" width="120" height="40" as="geometry" />
        </mxCell>
        <mxCell id="rxSAj68sfvyTgOexhZe--35" value="Output Preview" style="rounded=0;whiteSpace=wrap;html=1;" parent="1" vertex="1">
          <mxGeometry x="548.5" y="400" width="83" height="35" as="geometry" />
        </mxCell>
        <mxCell id="rxSAj68sfvyTgOexhZe--37" value="Input Preview" style="rounded=0;whiteSpace=wrap;html=1;" parent="1" vertex="1">
          <mxGeometry x="548.5" y="180" width="83" height="35" as="geometry" />
        </mxCell>
        <mxCell id="rxSAj68sfvyTgOexhZe--39" value="Logging Tables" style="rounded=0;whiteSpace=wrap;html=1;" parent="1" vertex="1">
          <mxGeometry x="1420" y="335" width="70" height="50" as="geometry" />
        </mxCell>
        <mxCell id="rxSAj68sfvyTgOexhZe--48" style="edgeStyle=orthogonalEdgeStyle;rounded=0;orthogonalLoop=1;jettySize=auto;html=1;entryX=0;entryY=0.5;entryDx=0;entryDy=0;" parent="1" source="rxSAj68sfvyTgOexhZe--41" target="rxSAj68sfvyTgOexhZe--39" edge="1">
          <mxGeometry relative="1" as="geometry" />
        </mxCell>
        <mxCell id="rxSAj68sfvyTgOexhZe--41" value="I/O Writer" style="rounded=1;whiteSpace=wrap;html=1;" parent="1" vertex="1">
          <mxGeometry x="1260" y="340" width="100" height="40" as="geometry" />
        </mxCell>
        <mxCell id="rxSAj68sfvyTgOexhZe--44" value="" style="edgeStyle=orthogonalEdgeStyle;rounded=0;orthogonalLoop=1;jettySize=auto;html=1;jumpStyle=arc;" parent="1" source="rxSAj68sfvyTgOexhZe--43" target="rxSAj68sfvyTgOexhZe--41" edge="1">
          <mxGeometry relative="1" as="geometry">
            <Array as="points">
              <mxPoint x="1040" y="540" />
              <mxPoint x="1310" y="540" />
            </Array>
          </mxGeometry>
        </mxCell>
        <mxCell id="rxSAj68sfvyTgOexhZe--50" value="data + metadata" style="edgeLabel;html=1;align=center;verticalAlign=middle;resizable=0;points=[];" parent="rxSAj68sfvyTgOexhZe--44" vertex="1" connectable="0">
          <mxGeometry x="-0.1823" y="-2" relative="1" as="geometry">
            <mxPoint as="offset" />
          </mxGeometry>
        </mxCell>
        <mxCell id="rxSAj68sfvyTgOexhZe--45" style="edgeStyle=orthogonalEdgeStyle;rounded=0;orthogonalLoop=1;jettySize=auto;html=1;entryX=0.5;entryY=0;entryDx=0;entryDy=0;exitX=0;exitY=0.5;exitDx=0;exitDy=0;" parent="1" source="rxSAj68sfvyTgOexhZe--43" target="rxSAj68sfvyTgOexhZe--30" edge="1">
          <mxGeometry relative="1" as="geometry" />
        </mxCell>
        <mxCell id="rxSAj68sfvyTgOexhZe--49" value="data only" style="edgeLabel;html=1;align=center;verticalAlign=middle;resizable=0;points=[];" parent="rxSAj68sfvyTgOexhZe--45" vertex="1" connectable="0">
          <mxGeometry x="-0.3126" y="-1" relative="1" as="geometry">
            <mxPoint as="offset" />
          </mxGeometry>
        </mxCell>
        <mxCell id="rxSAj68sfvyTgOexhZe--43" value="LLM Output Parser" style="rounded=1;whiteSpace=wrap;html=1;" parent="1" vertex="1">
          <mxGeometry x="990" y="400" width="100" height="40" as="geometry" />
        </mxCell>
        <mxCell id="rxSAj68sfvyTgOexhZe--54" value="Front End" style="text;html=1;align=center;verticalAlign=middle;whiteSpace=wrap;rounded=0;" parent="1" vertex="1">
          <mxGeometry x="560" y="150" width="60" height="30" as="geometry" />
        </mxCell>
        <mxCell id="rxSAj68sfvyTgOexhZe--55" value="Backend" style="text;html=1;align=center;verticalAlign=middle;whiteSpace=wrap;rounded=0;" parent="1" vertex="1">
          <mxGeometry x="700" y="150" width="60" height="30" as="geometry" />
        </mxCell>
        <mxCell id="rxSAj68sfvyTgOexhZe--56" value="Data" style="text;html=1;align=center;verticalAlign=middle;whiteSpace=wrap;rounded=0;" parent="1" vertex="1">
          <mxGeometry x="1390" y="150" width="60" height="30" as="geometry" />
        </mxCell>
        <mxCell id="rxSAj68sfvyTgOexhZe--57" value="&lt;span class=&quot;fontstyle0&quot;&gt;Prompt Engineering Use Case&lt;/span&gt; &lt;br/&gt;&lt;br style=&quot;font-variant-numeric: normal; font-variant-east-asian: normal; font-variant-alternates: normal; font-variant-position: normal; font-variant-emoji: normal; line-height: normal; text-align: -webkit-auto; text-size-adjust: auto;&quot;&gt;&lt;div&gt;&lt;span class=&quot;fontstyle0&quot;&gt;&lt;br&gt;&lt;/span&gt;&lt;/div&gt;" style="rounded=1;whiteSpace=wrap;html=1;arcSize=4;fillColor=#dae8fc;strokeColor=#6c8ebf;verticalAlign=top;" parent="1" vertex="1">
          <mxGeometry x="40" y="80" width="230" height="90" as="geometry" />
        </mxCell>
        <mxCell id="rxSAj68sfvyTgOexhZe--59" style="edgeStyle=orthogonalEdgeStyle;rounded=0;orthogonalLoop=1;jettySize=auto;html=1;" parent="1" source="rxSAj68sfvyTgOexhZe--58" target="rxSAj68sfvyTgOexhZe--12" edge="1">
          <mxGeometry relative="1" as="geometry" />
        </mxCell>
        <mxCell id="rxSAj68sfvyTgOexhZe--58" value="Error and retry message" style="rounded=0;whiteSpace=wrap;html=1;" parent="1" vertex="1">
          <mxGeometry x="727" y="340" width="83" height="35" as="geometry" />
        </mxCell>
      </root>
    </mxGraphModel>
  </diagram>
  <diagram id="d179B_yppHLe4lyh9erR" name="mlflow-genai">
    <mxGraphModel dx="1472" dy="832" grid="1" gridSize="10" guides="1" tooltips="1" connect="1" arrows="1" fold="1" page="1" pageScale="1" pageWidth="1654" pageHeight="1169" math="0" shadow="0">
      <root>
        <mxCell id="0" />
        <mxCell id="1" parent="0" />
        <mxCell id="9kzrK-drlzXipjEnNl-j-6" style="edgeStyle=orthogonalEdgeStyle;rounded=0;orthogonalLoop=1;jettySize=auto;html=1;exitX=0.5;exitY=1;exitDx=0;exitDy=0;endArrow=none;endFill=0;" edge="1" parent="1" source="9kzrK-drlzXipjEnNl-j-1" target="9kzrK-drlzXipjEnNl-j-2">
          <mxGeometry relative="1" as="geometry" />
        </mxCell>
        <mxCell id="9kzrK-drlzXipjEnNl-j-9" style="edgeStyle=orthogonalEdgeStyle;rounded=0;orthogonalLoop=1;jettySize=auto;html=1;entryX=0.5;entryY=0;entryDx=0;entryDy=0;exitX=0.5;exitY=1;exitDx=0;exitDy=0;endArrow=none;endFill=0;" edge="1" parent="1" source="9kzrK-drlzXipjEnNl-j-1" target="9kzrK-drlzXipjEnNl-j-5">
          <mxGeometry relative="1" as="geometry" />
        </mxCell>
        <mxCell id="9kzrK-drlzXipjEnNl-j-64" style="edgeStyle=orthogonalEdgeStyle;shape=connector;rounded=0;orthogonalLoop=1;jettySize=auto;html=1;strokeColor=default;align=center;verticalAlign=middle;fontFamily=Helvetica;fontSize=11;fontColor=default;labelBackgroundColor=default;endArrow=none;endFill=0;" edge="1" parent="1" source="9kzrK-drlzXipjEnNl-j-1" target="9kzrK-drlzXipjEnNl-j-3">
          <mxGeometry relative="1" as="geometry">
            <Array as="points">
              <mxPoint x="720" y="110" />
              <mxPoint x="940" y="110" />
            </Array>
          </mxGeometry>
        </mxCell>
        <mxCell id="9kzrK-drlzXipjEnNl-j-65" style="edgeStyle=orthogonalEdgeStyle;shape=connector;rounded=0;orthogonalLoop=1;jettySize=auto;html=1;entryX=0.5;entryY=0;entryDx=0;entryDy=0;strokeColor=default;align=center;verticalAlign=middle;fontFamily=Helvetica;fontSize=11;fontColor=default;labelBackgroundColor=default;endArrow=none;endFill=0;" edge="1" parent="1" source="9kzrK-drlzXipjEnNl-j-1" target="9kzrK-drlzXipjEnNl-j-4">
          <mxGeometry relative="1" as="geometry">
            <Array as="points">
              <mxPoint x="720" y="110" />
              <mxPoint x="150" y="110" />
            </Array>
          </mxGeometry>
        </mxCell>
        <mxCell id="9kzrK-drlzXipjEnNl-j-1" value="Experiment" style="rounded=1;whiteSpace=wrap;html=1;" vertex="1" parent="1">
          <mxGeometry x="660" y="50" width="120" height="40" as="geometry" />
        </mxCell>
        <mxCell id="9kzrK-drlzXipjEnNl-j-2" value="Observability Data" style="rounded=1;whiteSpace=wrap;html=1;" vertex="1" parent="1">
          <mxGeometry x="420" y="130" width="120" height="40" as="geometry" />
        </mxCell>
        <mxCell id="9kzrK-drlzXipjEnNl-j-44" style="edgeStyle=orthogonalEdgeStyle;shape=connector;rounded=0;orthogonalLoop=1;jettySize=auto;html=1;entryX=0.5;entryY=0;entryDx=0;entryDy=0;strokeColor=default;align=center;verticalAlign=middle;fontFamily=Helvetica;fontSize=11;fontColor=default;labelBackgroundColor=default;endArrow=none;endFill=0;" edge="1" parent="1" source="9kzrK-drlzXipjEnNl-j-3" target="9kzrK-drlzXipjEnNl-j-30">
          <mxGeometry relative="1" as="geometry" />
        </mxCell>
        <mxCell id="9kzrK-drlzXipjEnNl-j-45" style="edgeStyle=orthogonalEdgeStyle;shape=connector;rounded=0;orthogonalLoop=1;jettySize=auto;html=1;entryX=0.5;entryY=0;entryDx=0;entryDy=0;strokeColor=default;align=center;verticalAlign=middle;fontFamily=Helvetica;fontSize=11;fontColor=default;labelBackgroundColor=default;endArrow=none;endFill=0;" edge="1" parent="1" source="9kzrK-drlzXipjEnNl-j-3" target="9kzrK-drlzXipjEnNl-j-43">
          <mxGeometry relative="1" as="geometry" />
        </mxCell>
        <mxCell id="9kzrK-drlzXipjEnNl-j-3" value="Evaluation Data" style="rounded=1;whiteSpace=wrap;html=1;" vertex="1" parent="1">
          <mxGeometry x="880" y="130" width="120" height="40" as="geometry" />
        </mxCell>
        <mxCell id="9kzrK-drlzXipjEnNl-j-49" style="edgeStyle=orthogonalEdgeStyle;shape=connector;rounded=0;orthogonalLoop=1;jettySize=auto;html=1;entryX=0.5;entryY=0;entryDx=0;entryDy=0;strokeColor=default;align=center;verticalAlign=middle;fontFamily=Helvetica;fontSize=11;fontColor=default;labelBackgroundColor=default;endArrow=none;endFill=0;" edge="1" parent="1" source="9kzrK-drlzXipjEnNl-j-4" target="9kzrK-drlzXipjEnNl-j-48">
          <mxGeometry relative="1" as="geometry" />
        </mxCell>
        <mxCell id="9kzrK-drlzXipjEnNl-j-4" value="Human Labelling Data" style="rounded=1;whiteSpace=wrap;html=1;" vertex="1" parent="1">
          <mxGeometry x="90" y="130" width="120" height="40" as="geometry" />
        </mxCell>
        <mxCell id="9kzrK-drlzXipjEnNl-j-5" value="Application Versioning Data" style="rounded=1;whiteSpace=wrap;html=1;" vertex="1" parent="1">
          <mxGeometry x="1230" y="130" width="120" height="40" as="geometry" />
        </mxCell>
        <mxCell id="9kzrK-drlzXipjEnNl-j-34" style="edgeStyle=orthogonalEdgeStyle;shape=connector;rounded=0;orthogonalLoop=1;jettySize=auto;html=1;entryX=0;entryY=0.5;entryDx=0;entryDy=0;strokeColor=default;align=center;verticalAlign=middle;fontFamily=Helvetica;fontSize=11;fontColor=default;labelBackgroundColor=default;endArrow=classic;endFill=1;dashed=1;" edge="1" parent="1" source="9kzrK-drlzXipjEnNl-j-10" target="9kzrK-drlzXipjEnNl-j-33">
          <mxGeometry relative="1" as="geometry">
            <Array as="points">
              <mxPoint x="750" y="210" />
              <mxPoint x="750" y="475" />
            </Array>
          </mxGeometry>
        </mxCell>
        <mxCell id="9kzrK-drlzXipjEnNl-j-46" style="edgeStyle=orthogonalEdgeStyle;shape=connector;rounded=0;orthogonalLoop=1;jettySize=auto;html=1;entryX=0;entryY=0.25;entryDx=0;entryDy=0;strokeColor=default;align=center;verticalAlign=middle;fontFamily=Helvetica;fontSize=11;fontColor=default;labelBackgroundColor=default;endArrow=classic;endFill=1;dashed=1;" edge="1" parent="1" source="9kzrK-drlzXipjEnNl-j-10" target="9kzrK-drlzXipjEnNl-j-43">
          <mxGeometry relative="1" as="geometry">
            <Array as="points">
              <mxPoint x="750" y="210" />
              <mxPoint x="750" y="230" />
            </Array>
          </mxGeometry>
        </mxCell>
        <mxCell id="9kzrK-drlzXipjEnNl-j-52" style="edgeStyle=orthogonalEdgeStyle;shape=connector;rounded=0;orthogonalLoop=1;jettySize=auto;html=1;entryX=1;entryY=0.5;entryDx=0;entryDy=0;strokeColor=default;align=center;verticalAlign=middle;fontFamily=Helvetica;fontSize=11;fontColor=default;labelBackgroundColor=default;endArrow=classic;endFill=1;dashed=1;" edge="1" parent="1" source="9kzrK-drlzXipjEnNl-j-10" target="9kzrK-drlzXipjEnNl-j-51">
          <mxGeometry relative="1" as="geometry" />
        </mxCell>
        <mxCell id="9kzrK-drlzXipjEnNl-j-10" value="Traces" style="rounded=1;whiteSpace=wrap;html=1;" vertex="1" parent="1">
          <mxGeometry x="420" y="200" width="120" height="40" as="geometry" />
        </mxCell>
        <mxCell id="9kzrK-drlzXipjEnNl-j-47" style="edgeStyle=orthogonalEdgeStyle;shape=connector;rounded=0;orthogonalLoop=1;jettySize=auto;html=1;entryX=0;entryY=0.75;entryDx=0;entryDy=0;strokeColor=default;align=center;verticalAlign=middle;fontFamily=Helvetica;fontSize=11;fontColor=default;labelBackgroundColor=default;endArrow=classic;endFill=1;dashed=1;" edge="1" parent="1" source="9kzrK-drlzXipjEnNl-j-11" target="9kzrK-drlzXipjEnNl-j-43">
          <mxGeometry relative="1" as="geometry">
            <Array as="points">
              <mxPoint x="780" y="270" />
              <mxPoint x="780" y="250" />
            </Array>
          </mxGeometry>
        </mxCell>
        <mxCell id="9kzrK-drlzXipjEnNl-j-11" value="Assessments" style="rounded=1;whiteSpace=wrap;html=1;" vertex="1" parent="1">
          <mxGeometry x="420" y="260" width="120" height="40" as="geometry" />
        </mxCell>
        <mxCell id="9kzrK-drlzXipjEnNl-j-12" style="edgeStyle=orthogonalEdgeStyle;rounded=0;orthogonalLoop=1;jettySize=auto;html=1;exitX=0.5;exitY=0;exitDx=0;exitDy=0;endArrow=none;endFill=0;entryX=0.5;entryY=1;entryDx=0;entryDy=0;" edge="1" parent="1" source="9kzrK-drlzXipjEnNl-j-10" target="9kzrK-drlzXipjEnNl-j-2">
          <mxGeometry relative="1" as="geometry">
            <mxPoint x="780" y="100" as="sourcePoint" />
            <mxPoint x="480" y="166" as="targetPoint" />
          </mxGeometry>
        </mxCell>
        <mxCell id="9kzrK-drlzXipjEnNl-j-13" style="edgeStyle=orthogonalEdgeStyle;rounded=0;orthogonalLoop=1;jettySize=auto;html=1;exitX=0.5;exitY=0;exitDx=0;exitDy=0;endArrow=none;endFill=0;entryX=0.5;entryY=1;entryDx=0;entryDy=0;" edge="1" parent="1" source="9kzrK-drlzXipjEnNl-j-11" target="9kzrK-drlzXipjEnNl-j-10">
          <mxGeometry relative="1" as="geometry">
            <mxPoint x="500" y="250" as="sourcePoint" />
            <mxPoint x="500" y="230" as="targetPoint" />
          </mxGeometry>
        </mxCell>
        <mxCell id="9kzrK-drlzXipjEnNl-j-14" value="Feedback&lt;div&gt;&lt;i&gt;&lt;font style=&quot;font-size: 8px;&quot;&gt;Judgments about the quality of your app&#39;s outputs&lt;/font&gt;&lt;/i&gt;&lt;/div&gt;" style="rounded=1;whiteSpace=wrap;html=1;" vertex="1" parent="1">
          <mxGeometry x="290" y="340" width="120" height="50" as="geometry" />
        </mxCell>
        <mxCell id="9kzrK-drlzXipjEnNl-j-15" value="Expectation*&lt;div&gt;&lt;font style=&quot;font-size: 8px;&quot;&gt;&lt;i&gt;Ground truth labels that define the correct output for a given input&lt;/i&gt;&lt;/font&gt;&lt;/div&gt;" style="rounded=1;whiteSpace=wrap;html=1;" vertex="1" parent="1">
          <mxGeometry x="550" y="340" width="140" height="50" as="geometry" />
        </mxCell>
        <mxCell id="9kzrK-drlzXipjEnNl-j-16" value="End-Users" style="rounded=1;whiteSpace=wrap;html=1;" vertex="1" parent="1">
          <mxGeometry x="220" y="440" width="80" height="40" as="geometry" />
        </mxCell>
        <mxCell id="9kzrK-drlzXipjEnNl-j-17" value="Scorers" style="rounded=1;whiteSpace=wrap;html=1;" vertex="1" parent="1">
          <mxGeometry x="310" y="440" width="80" height="40" as="geometry" />
        </mxCell>
        <mxCell id="9kzrK-drlzXipjEnNl-j-18" value="LLM Judges" style="rounded=1;whiteSpace=wrap;html=1;" vertex="1" parent="1">
          <mxGeometry x="400" y="440" width="80" height="40" as="geometry" />
        </mxCell>
        <mxCell id="9kzrK-drlzXipjEnNl-j-19" value="Expected Responses" style="rounded=1;whiteSpace=wrap;html=1;" vertex="1" parent="1">
          <mxGeometry x="540" y="440" width="80" height="40" as="geometry" />
        </mxCell>
        <mxCell id="9kzrK-drlzXipjEnNl-j-20" value="Required Facts" style="rounded=1;whiteSpace=wrap;html=1;" vertex="1" parent="1">
          <mxGeometry x="640" y="440" width="80" height="40" as="geometry" />
        </mxCell>
        <mxCell id="9kzrK-drlzXipjEnNl-j-21" value="&lt;font style=&quot;font-size: 10px;&quot;&gt;*Ground truth labels (expectations) are &lt;b&gt;NOT&lt;/b&gt; required to measure quality with MLflow. Most applications will &lt;b&gt;NOT&lt;/b&gt; have or only have a &lt;b&gt;MINIMAL&lt;/b&gt; set of ground truth labels.&lt;/font&gt;" style="shape=document;whiteSpace=wrap;html=1;boundedLbl=1;fillColor=#fff2cc;strokeColor=#d6b656;size=0.1111111111111111;spacing=4;" vertex="1" parent="1">
          <mxGeometry x="1010" y="590" width="170" height="90" as="geometry" />
        </mxCell>
        <mxCell id="9kzrK-drlzXipjEnNl-j-22" style="edgeStyle=orthogonalEdgeStyle;rounded=0;orthogonalLoop=1;jettySize=auto;html=1;exitX=0.5;exitY=0;exitDx=0;exitDy=0;endArrow=none;endFill=0;entryX=0.5;entryY=1;entryDx=0;entryDy=0;" edge="1" parent="1" source="9kzrK-drlzXipjEnNl-j-14" target="9kzrK-drlzXipjEnNl-j-11">
          <mxGeometry relative="1" as="geometry">
            <mxPoint x="740" y="310" as="sourcePoint" />
            <mxPoint x="740" y="290" as="targetPoint" />
          </mxGeometry>
        </mxCell>
        <mxCell id="9kzrK-drlzXipjEnNl-j-23" style="edgeStyle=orthogonalEdgeStyle;rounded=0;orthogonalLoop=1;jettySize=auto;html=1;exitX=0.5;exitY=0;exitDx=0;exitDy=0;endArrow=none;endFill=0;entryX=0.5;entryY=1;entryDx=0;entryDy=0;" edge="1" parent="1" source="9kzrK-drlzXipjEnNl-j-15" target="9kzrK-drlzXipjEnNl-j-11">
          <mxGeometry relative="1" as="geometry">
            <mxPoint x="770" y="420" as="sourcePoint" />
            <mxPoint x="860" y="380" as="targetPoint" />
          </mxGeometry>
        </mxCell>
        <mxCell id="9kzrK-drlzXipjEnNl-j-25" style="edgeStyle=orthogonalEdgeStyle;rounded=0;orthogonalLoop=1;jettySize=auto;html=1;exitX=0.5;exitY=0;exitDx=0;exitDy=0;endArrow=none;endFill=0;entryX=0.5;entryY=1;entryDx=0;entryDy=0;" edge="1" parent="1" source="9kzrK-drlzXipjEnNl-j-16" target="9kzrK-drlzXipjEnNl-j-14">
          <mxGeometry relative="1" as="geometry">
            <mxPoint x="440" y="440" as="sourcePoint" />
            <mxPoint x="530" y="400" as="targetPoint" />
          </mxGeometry>
        </mxCell>
        <mxCell id="9kzrK-drlzXipjEnNl-j-26" style="edgeStyle=orthogonalEdgeStyle;rounded=0;orthogonalLoop=1;jettySize=auto;html=1;endArrow=none;endFill=0;entryX=0.5;entryY=1;entryDx=0;entryDy=0;" edge="1" parent="1" source="9kzrK-drlzXipjEnNl-j-17" target="9kzrK-drlzXipjEnNl-j-14">
          <mxGeometry relative="1" as="geometry">
            <mxPoint x="400" y="460" as="sourcePoint" />
            <mxPoint x="490" y="420" as="targetPoint" />
          </mxGeometry>
        </mxCell>
        <mxCell id="9kzrK-drlzXipjEnNl-j-27" style="edgeStyle=orthogonalEdgeStyle;rounded=0;orthogonalLoop=1;jettySize=auto;html=1;exitX=0.5;exitY=0;exitDx=0;exitDy=0;endArrow=none;endFill=0;entryX=0.5;entryY=1;entryDx=0;entryDy=0;" edge="1" parent="1" source="9kzrK-drlzXipjEnNl-j-18" target="9kzrK-drlzXipjEnNl-j-14">
          <mxGeometry relative="1" as="geometry">
            <mxPoint x="410" y="470" as="sourcePoint" />
            <mxPoint x="500" y="430" as="targetPoint" />
          </mxGeometry>
        </mxCell>
        <mxCell id="9kzrK-drlzXipjEnNl-j-28" style="edgeStyle=orthogonalEdgeStyle;rounded=0;orthogonalLoop=1;jettySize=auto;html=1;exitX=0.5;exitY=0;exitDx=0;exitDy=0;endArrow=none;endFill=0;" edge="1" parent="1" source="9kzrK-drlzXipjEnNl-j-19" target="9kzrK-drlzXipjEnNl-j-15">
          <mxGeometry relative="1" as="geometry">
            <mxPoint x="530" y="450" as="sourcePoint" />
            <mxPoint x="620" y="410" as="targetPoint" />
          </mxGeometry>
        </mxCell>
        <mxCell id="9kzrK-drlzXipjEnNl-j-29" style="edgeStyle=orthogonalEdgeStyle;rounded=0;orthogonalLoop=1;jettySize=auto;html=1;exitX=0.5;exitY=0;exitDx=0;exitDy=0;endArrow=none;endFill=0;entryX=0.5;entryY=1;entryDx=0;entryDy=0;" edge="1" parent="1" source="9kzrK-drlzXipjEnNl-j-20" target="9kzrK-drlzXipjEnNl-j-15">
          <mxGeometry relative="1" as="geometry">
            <mxPoint x="650" y="460" as="sourcePoint" />
            <mxPoint x="740" y="420" as="targetPoint" />
          </mxGeometry>
        </mxCell>
        <mxCell id="9kzrK-drlzXipjEnNl-j-32" style="edgeStyle=orthogonalEdgeStyle;rounded=0;orthogonalLoop=1;jettySize=auto;html=1;entryX=0.5;entryY=0;entryDx=0;entryDy=0;endArrow=none;endFill=0;" edge="1" parent="1" source="9kzrK-drlzXipjEnNl-j-30" target="9kzrK-drlzXipjEnNl-j-31">
          <mxGeometry relative="1" as="geometry" />
        </mxCell>
        <mxCell id="9kzrK-drlzXipjEnNl-j-39" style="edgeStyle=orthogonalEdgeStyle;shape=connector;rounded=0;orthogonalLoop=1;jettySize=auto;html=1;strokeColor=default;align=center;verticalAlign=middle;fontFamily=Helvetica;fontSize=11;fontColor=default;labelBackgroundColor=default;endArrow=none;endFill=0;exitX=0.5;exitY=1;exitDx=0;exitDy=0;entryX=0.5;entryY=0;entryDx=0;entryDy=0;" edge="1" parent="1" source="9kzrK-drlzXipjEnNl-j-30" target="9kzrK-drlzXipjEnNl-j-36">
          <mxGeometry relative="1" as="geometry">
            <Array as="points">
              <mxPoint x="1020" y="330" />
              <mxPoint x="1260" y="330" />
            </Array>
          </mxGeometry>
        </mxCell>
        <mxCell id="9kzrK-drlzXipjEnNl-j-30" value="Evaluation Datasets" style="rounded=1;whiteSpace=wrap;html=1;" vertex="1" parent="1">
          <mxGeometry x="960" y="220" width="120" height="40" as="geometry" />
        </mxCell>
        <mxCell id="9kzrK-drlzXipjEnNl-j-35" style="edgeStyle=orthogonalEdgeStyle;shape=connector;rounded=0;orthogonalLoop=1;jettySize=auto;html=1;entryX=0.5;entryY=0;entryDx=0;entryDy=0;strokeColor=default;align=center;verticalAlign=middle;fontFamily=Helvetica;fontSize=11;fontColor=default;labelBackgroundColor=default;endArrow=none;endFill=0;" edge="1" parent="1" source="9kzrK-drlzXipjEnNl-j-31" target="9kzrK-drlzXipjEnNl-j-33">
          <mxGeometry relative="1" as="geometry" />
        </mxCell>
        <mxCell id="9kzrK-drlzXipjEnNl-j-61" style="edgeStyle=orthogonalEdgeStyle;shape=connector;rounded=0;orthogonalLoop=1;jettySize=auto;html=1;entryX=0.5;entryY=0;entryDx=0;entryDy=0;strokeColor=default;align=center;verticalAlign=middle;fontFamily=Helvetica;fontSize=11;fontColor=default;labelBackgroundColor=default;endArrow=none;endFill=0;" edge="1" parent="1" source="9kzrK-drlzXipjEnNl-j-31" target="9kzrK-drlzXipjEnNl-j-60">
          <mxGeometry relative="1" as="geometry" />
        </mxCell>
        <mxCell id="9kzrK-drlzXipjEnNl-j-31" value="Origins" style="rounded=1;whiteSpace=wrap;html=1;" vertex="1" parent="1">
          <mxGeometry x="975" y="360" width="90" height="30" as="geometry" />
        </mxCell>
        <mxCell id="9kzrK-drlzXipjEnNl-j-40" style="edgeStyle=orthogonalEdgeStyle;shape=connector;rounded=0;orthogonalLoop=1;jettySize=auto;html=1;entryX=0.5;entryY=1;entryDx=0;entryDy=0;strokeColor=default;align=center;verticalAlign=middle;fontFamily=Helvetica;fontSize=11;fontColor=default;labelBackgroundColor=default;endArrow=classic;endFill=1;dashed=1;exitX=0.5;exitY=1;exitDx=0;exitDy=0;" edge="1" parent="1" source="9kzrK-drlzXipjEnNl-j-33" target="9kzrK-drlzXipjEnNl-j-37">
          <mxGeometry relative="1" as="geometry">
            <Array as="points">
              <mxPoint x="940" y="540" />
              <mxPoint x="1200" y="540" />
            </Array>
          </mxGeometry>
        </mxCell>
        <mxCell id="9kzrK-drlzXipjEnNl-j-33" value="Selected Traces" style="rounded=1;whiteSpace=wrap;html=1;" vertex="1" parent="1">
          <mxGeometry x="890" y="460" width="100" height="30" as="geometry" />
        </mxCell>
        <mxCell id="9kzrK-drlzXipjEnNl-j-38" style="edgeStyle=orthogonalEdgeStyle;shape=connector;rounded=0;orthogonalLoop=1;jettySize=auto;html=1;entryX=0.5;entryY=0;entryDx=0;entryDy=0;strokeColor=default;align=center;verticalAlign=middle;fontFamily=Helvetica;fontSize=11;fontColor=default;labelBackgroundColor=default;endArrow=none;endFill=0;" edge="1" parent="1" source="9kzrK-drlzXipjEnNl-j-36" target="9kzrK-drlzXipjEnNl-j-37">
          <mxGeometry relative="1" as="geometry" />
        </mxCell>
        <mxCell id="9kzrK-drlzXipjEnNl-j-42" style="edgeStyle=orthogonalEdgeStyle;shape=connector;rounded=0;orthogonalLoop=1;jettySize=auto;html=1;entryX=0.5;entryY=0;entryDx=0;entryDy=0;strokeColor=default;align=center;verticalAlign=middle;fontFamily=Helvetica;fontSize=11;fontColor=default;labelBackgroundColor=default;endArrow=none;endFill=0;exitX=0.5;exitY=1;exitDx=0;exitDy=0;" edge="1" parent="1" source="9kzrK-drlzXipjEnNl-j-36" target="9kzrK-drlzXipjEnNl-j-41">
          <mxGeometry relative="1" as="geometry" />
        </mxCell>
        <mxCell id="9kzrK-drlzXipjEnNl-j-36" value="Format" style="rounded=1;whiteSpace=wrap;html=1;" vertex="1" parent="1">
          <mxGeometry x="1220" y="360" width="80" height="30" as="geometry" />
        </mxCell>
        <mxCell id="9kzrK-drlzXipjEnNl-j-37" value="MLflow Evaluation Datasets in UC" style="rounded=1;whiteSpace=wrap;html=1;" vertex="1" parent="1">
          <mxGeometry x="1140" y="455" width="120" height="40" as="geometry" />
        </mxCell>
        <mxCell id="9kzrK-drlzXipjEnNl-j-41" value="Arbitrary (List[Dict], Pandas df, Spark df)" style="rounded=1;whiteSpace=wrap;html=1;" vertex="1" parent="1">
          <mxGeometry x="1287" y="455" width="120" height="40" as="geometry" />
        </mxCell>
        <mxCell id="9kzrK-drlzXipjEnNl-j-43" value="Evaluation Runs" style="rounded=1;whiteSpace=wrap;html=1;" vertex="1" parent="1">
          <mxGeometry x="820" y="220" width="120" height="40" as="geometry" />
        </mxCell>
        <mxCell id="9kzrK-drlzXipjEnNl-j-59" style="edgeStyle=orthogonalEdgeStyle;shape=connector;rounded=0;orthogonalLoop=1;jettySize=auto;html=1;entryX=0.5;entryY=0;entryDx=0;entryDy=0;strokeColor=default;align=center;verticalAlign=middle;fontFamily=Helvetica;fontSize=11;fontColor=default;labelBackgroundColor=default;endArrow=none;endFill=0;" edge="1" parent="1" source="9kzrK-drlzXipjEnNl-j-48" target="9kzrK-drlzXipjEnNl-j-54">
          <mxGeometry relative="1" as="geometry" />
        </mxCell>
        <mxCell id="9kzrK-drlzXipjEnNl-j-48" value="Labelling Sessions" style="rounded=1;whiteSpace=wrap;html=1;" vertex="1" parent="1">
          <mxGeometry x="90" y="200" width="120" height="40" as="geometry" />
        </mxCell>
        <mxCell id="9kzrK-drlzXipjEnNl-j-53" value="" style="edgeStyle=orthogonalEdgeStyle;shape=connector;rounded=0;orthogonalLoop=1;jettySize=auto;html=1;strokeColor=default;align=center;verticalAlign=middle;fontFamily=Helvetica;fontSize=11;fontColor=default;labelBackgroundColor=default;endArrow=none;endFill=0;" edge="1" parent="1" source="9kzrK-drlzXipjEnNl-j-51" target="9kzrK-drlzXipjEnNl-j-48">
          <mxGeometry relative="1" as="geometry" />
        </mxCell>
        <mxCell id="9kzrK-drlzXipjEnNl-j-51" value="Selected Traces" style="rounded=1;whiteSpace=wrap;html=1;" vertex="1" parent="1">
          <mxGeometry x="240" y="200" width="120" height="40" as="geometry" />
        </mxCell>
        <mxCell id="9kzrK-drlzXipjEnNl-j-54" value="Expert Reviews" style="rounded=1;whiteSpace=wrap;html=1;" vertex="1" parent="1">
          <mxGeometry x="90" y="260" width="120" height="40" as="geometry" />
        </mxCell>
        <mxCell id="9kzrK-drlzXipjEnNl-j-58" style="edgeStyle=orthogonalEdgeStyle;shape=connector;rounded=0;orthogonalLoop=1;jettySize=auto;html=1;entryX=1;entryY=0.5;entryDx=0;entryDy=0;strokeColor=default;align=center;verticalAlign=middle;fontFamily=Helvetica;fontSize=11;fontColor=default;labelBackgroundColor=default;endArrow=none;endFill=0;" edge="1" parent="1" source="9kzrK-drlzXipjEnNl-j-55" target="9kzrK-drlzXipjEnNl-j-54">
          <mxGeometry relative="1" as="geometry" />
        </mxCell>
        <mxCell id="9kzrK-drlzXipjEnNl-j-55" value="Labelling Schemas" style="rounded=1;whiteSpace=wrap;html=1;" vertex="1" parent="1">
          <mxGeometry x="240" y="260" width="120" height="40" as="geometry" />
        </mxCell>
        <mxCell id="9kzrK-drlzXipjEnNl-j-57" style="edgeStyle=orthogonalEdgeStyle;shape=connector;rounded=0;orthogonalLoop=1;jettySize=auto;html=1;entryX=1;entryY=0.5;entryDx=0;entryDy=0;strokeColor=default;align=center;verticalAlign=middle;fontFamily=Helvetica;fontSize=11;fontColor=default;labelBackgroundColor=default;endArrow=classic;endFill=1;dashed=1;exitX=0;exitY=0.5;exitDx=0;exitDy=0;" edge="1" parent="1" source="9kzrK-drlzXipjEnNl-j-11" target="9kzrK-drlzXipjEnNl-j-55">
          <mxGeometry relative="1" as="geometry">
            <mxPoint x="430" y="270" as="sourcePoint" />
            <mxPoint x="370" y="270" as="targetPoint" />
          </mxGeometry>
        </mxCell>
        <mxCell id="9kzrK-drlzXipjEnNl-j-60" value="Manual" style="rounded=1;whiteSpace=wrap;html=1;" vertex="1" parent="1">
          <mxGeometry x="1010" y="460" width="80" height="30" as="geometry" />
        </mxCell>
        <mxCell id="9kzrK-drlzXipjEnNl-j-63" style="edgeStyle=orthogonalEdgeStyle;shape=connector;rounded=0;orthogonalLoop=1;jettySize=auto;html=1;entryX=0.5;entryY=1;entryDx=0;entryDy=0;strokeColor=default;align=center;verticalAlign=middle;fontFamily=Helvetica;fontSize=11;fontColor=default;labelBackgroundColor=default;endArrow=classic;endFill=1;dashed=1;exitX=0.5;exitY=1;exitDx=0;exitDy=0;" edge="1" parent="1" source="9kzrK-drlzXipjEnNl-j-60" target="9kzrK-drlzXipjEnNl-j-41">
          <mxGeometry relative="1" as="geometry">
            <mxPoint x="1100" y="520" as="sourcePoint" />
            <mxPoint x="1170" y="520" as="targetPoint" />
            <Array as="points">
              <mxPoint x="1050" y="520" />
              <mxPoint x="1347" y="520" />
            </Array>
          </mxGeometry>
        </mxCell>
        <mxCell id="9kzrK-drlzXipjEnNl-j-68" style="edgeStyle=orthogonalEdgeStyle;shape=connector;rounded=0;orthogonalLoop=1;jettySize=auto;html=1;entryX=0.5;entryY=1;entryDx=0;entryDy=0;strokeColor=default;align=center;verticalAlign=middle;fontFamily=Helvetica;fontSize=11;fontColor=default;labelBackgroundColor=default;endArrow=classic;endFill=1;dashed=1;" edge="1" parent="1" source="9kzrK-drlzXipjEnNl-j-66" target="9kzrK-drlzXipjEnNl-j-43">
          <mxGeometry relative="1" as="geometry">
            <Array as="points">
              <mxPoint x="1222" y="300" />
              <mxPoint x="880" y="300" />
            </Array>
          </mxGeometry>
        </mxCell>
        <mxCell id="9kzrK-drlzXipjEnNl-j-66" value="Prompts&lt;div&gt;&lt;i&gt;&lt;font style=&quot;font-size: 8px;&quot;&gt;version-controlled templates for LLM prompts, with alias support&lt;/font&gt;&lt;/i&gt;&lt;/div&gt;" style="rounded=1;whiteSpace=wrap;html=1;" vertex="1" parent="1">
          <mxGeometry x="1157" y="220" width="130" height="50" as="geometry" />
        </mxCell>
        <mxCell id="9kzrK-drlzXipjEnNl-j-69" style="edgeStyle=orthogonalEdgeStyle;shape=connector;rounded=0;orthogonalLoop=1;jettySize=auto;html=1;entryX=1;entryY=0.5;entryDx=0;entryDy=0;strokeColor=default;align=center;verticalAlign=middle;fontFamily=Helvetica;fontSize=11;fontColor=default;labelBackgroundColor=default;endArrow=none;endFill=0;dashed=1;startArrow=classic;startFill=1;" edge="1" parent="1" source="9kzrK-drlzXipjEnNl-j-67" target="9kzrK-drlzXipjEnNl-j-66">
          <mxGeometry relative="1" as="geometry" />
        </mxCell>
        <mxCell id="9kzrK-drlzXipjEnNl-j-67" value="Logged Models&lt;div&gt;&lt;font style=&quot;font-size: 8px;&quot;&gt;&lt;i&gt;snapshots of the application at specific points in time&lt;/i&gt;&lt;/font&gt;&lt;/div&gt;" style="rounded=1;whiteSpace=wrap;html=1;" vertex="1" parent="1">
          <mxGeometry x="1360" y="220" width="130" height="50" as="geometry" />
        </mxCell>
        <mxCell id="9kzrK-drlzXipjEnNl-j-70" style="edgeStyle=orthogonalEdgeStyle;shape=connector;rounded=0;orthogonalLoop=1;jettySize=auto;html=1;entryX=1;entryY=0.75;entryDx=0;entryDy=0;strokeColor=default;align=center;verticalAlign=middle;fontFamily=Helvetica;fontSize=11;fontColor=default;labelBackgroundColor=default;endArrow=classic;endFill=1;dashed=1;exitX=0.5;exitY=1;exitDx=0;exitDy=0;" edge="1" parent="1" source="9kzrK-drlzXipjEnNl-j-67" target="9kzrK-drlzXipjEnNl-j-10">
          <mxGeometry relative="1" as="geometry">
            <mxPoint x="1632" y="340" as="sourcePoint" />
            <mxPoint x="1290" y="330" as="targetPoint" />
            <Array as="points">
              <mxPoint x="1425" y="320" />
              <mxPoint x="700" y="320" />
              <mxPoint x="700" y="230" />
            </Array>
          </mxGeometry>
        </mxCell>
        <mxCell id="9kzrK-drlzXipjEnNl-j-71" style="edgeStyle=orthogonalEdgeStyle;shape=connector;rounded=0;orthogonalLoop=1;jettySize=auto;html=1;entryX=0.5;entryY=1;entryDx=0;entryDy=0;strokeColor=default;align=center;verticalAlign=middle;fontFamily=Helvetica;fontSize=11;fontColor=default;labelBackgroundColor=default;endArrow=classic;endFill=1;dashed=1;exitX=0.5;exitY=1;exitDx=0;exitDy=0;" edge="1" parent="1" source="9kzrK-drlzXipjEnNl-j-67" target="9kzrK-drlzXipjEnNl-j-43">
          <mxGeometry relative="1" as="geometry">
            <mxPoint x="1682" y="300" as="sourcePoint" />
            <mxPoint x="1340" y="290" as="targetPoint" />
            <Array as="points">
              <mxPoint x="1425" y="300" />
              <mxPoint x="880" y="300" />
            </Array>
          </mxGeometry>
        </mxCell>
      </root>
    </mxGraphModel>
  </diagram>
</mxfile>
